<svg width="107" height="96" viewBox="0 0 107 96" fill="none" xmlns="http://www.w3.org/2000/svg">
<g clip-path="url(#clip0_90_1513)">
<path d="M101.207 46.6903C101.206 58.8238 95.8787 70.4601 86.3964 79.0398C76.9141 87.6195 64.0536 92.4398 50.6435 92.4405C50.1928 92.4405 48.5676 97.8071 48.1228 97.8071L45.6139 92.2178C35.8757 91.3375 26.629 87.9192 18.9956 82.3776C11.3622 76.836 5.67014 69.4092 2.60991 60.9981C-0.450329 52.587 -0.747222 43.5532 1.75524 34.9925C4.25771 26.4317 9.45199 18.712 16.708 12.7698C23.964 6.82756 32.9698 2.91818 42.633 1.51591C52.2963 0.113639 62.2016 1.27873 71.1474 4.86985C80.0932 8.46098 87.695 14.3238 93.0307 21.7471C98.3664 29.1704 101.207 37.8352 101.207 46.6903Z" fill="white"/>
<path d="M51.1265 47.5677C51.8635 47.5677 52.461 47.0271 52.461 46.3602C52.461 45.6933 51.8635 45.1527 51.1265 45.1527C50.3895 45.1527 49.792 45.6933 49.792 46.3602C49.792 47.0271 50.3895 47.5677 51.1265 47.5677Z" fill="black"/>
<path d="M53.4517 46.4917C54.1887 46.4917 54.7862 45.951 54.7862 45.2842C54.7862 44.6173 54.1887 44.0767 53.4517 44.0767C52.7147 44.0767 52.1172 44.6173 52.1172 45.2842C52.1172 45.951 52.7147 46.4917 53.4517 46.4917Z" fill="black"/>
<path d="M55.107 44.6617C55.844 44.6617 56.4415 44.1211 56.4415 43.4542C56.4415 42.7873 55.844 42.2467 55.107 42.2467C54.3699 42.2467 53.7725 42.7873 53.7725 43.4542C53.7725 44.1211 54.3699 44.6617 55.107 44.6617Z" fill="black"/>
<path d="M55.8091 42.3862C56.5462 42.3862 57.1436 41.8456 57.1436 41.1787C57.1436 40.5119 56.5462 39.9713 55.8091 39.9713C55.0721 39.9713 54.4746 40.5119 54.4746 41.1787C54.4746 41.8456 55.0721 42.3862 55.8091 42.3862Z" fill="black"/>
<path d="M85.7886 29.6567C86.5257 29.6567 87.1231 29.1161 87.1231 28.4492C87.1231 27.7823 86.5257 27.2417 85.7886 27.2417C85.0516 27.2417 84.4541 27.7823 84.4541 28.4492C84.4541 29.1161 85.0516 29.6567 85.7886 29.6567Z" fill="black"/>
<path d="M54.0718 38.0339C54.8089 38.0339 55.4063 37.4933 55.4063 36.8264C55.4063 36.1596 54.8089 35.619 54.0718 35.619C53.3348 35.619 52.7373 36.1596 52.7373 36.8264C52.7373 37.4933 53.3348 38.0339 54.0718 38.0339Z" fill="black"/>
<path d="M49.3619 42.5311C50.0989 42.5311 50.6964 41.9905 50.6964 41.3236C50.6964 40.6568 50.0989 40.1161 49.3619 40.1161C48.6248 40.1161 48.0273 40.6568 48.0273 41.3236C48.0273 41.9905 48.6248 42.5311 49.3619 42.5311Z" fill="black"/>
<path d="M51.9244 36.6896C52.6614 36.6896 53.2589 36.149 53.2589 35.4821C53.2589 34.8152 52.6614 34.2746 51.9244 34.2746C51.1873 34.2746 50.5898 34.8152 50.5898 35.4821C50.5898 36.149 51.1873 36.6896 51.9244 36.6896Z" fill="black"/>
<path d="M49.3619 36.2388C50.0989 36.2388 50.6964 35.6982 50.6964 35.0313C50.6964 34.3644 50.0989 33.8238 49.3619 33.8238C48.6248 33.8238 48.0273 34.3644 48.0273 35.0313C48.0273 35.6982 48.6248 36.2388 49.3619 36.2388Z" fill="black"/>
<path d="M46.8121 36.754C47.5491 36.754 48.1466 36.2134 48.1466 35.5465C48.1466 34.8796 47.5491 34.339 46.8121 34.339C46.075 34.339 45.4775 34.8796 45.4775 35.5465C45.4775 36.2134 46.075 36.754 46.8121 36.754Z" fill="black"/>
<path d="M44.7066 38.1493C45.4436 38.1493 46.0411 37.6087 46.0411 36.9418C46.0411 36.2749 45.4436 35.7343 44.7066 35.7343C43.9696 35.7343 43.3721 36.2749 43.3721 36.9418C43.3721 37.6087 43.9696 38.1493 44.7066 38.1493Z" fill="black"/>
<path d="M43.396 40.194C44.1331 40.194 44.7306 39.6534 44.7306 38.9865C44.7306 38.3196 44.1331 37.779 43.396 37.779C42.659 37.779 42.0615 38.3196 42.0615 38.9865C42.0615 39.6534 42.659 40.194 43.396 40.194Z" fill="black"/>
<path d="M43.1021 42.5419C43.8391 42.5419 44.4366 42.0013 44.4366 41.3344C44.4366 40.6675 43.8391 40.1269 43.1021 40.1269C42.3651 40.1269 41.7676 40.6675 41.7676 41.3344C41.7676 42.0013 42.3651 42.5419 43.1021 42.5419Z" fill="black"/>
<path d="M43.8726 44.8012C44.6096 44.8012 45.2071 44.2606 45.2071 43.5937C45.2071 42.9268 44.6096 42.3862 43.8726 42.3862C43.1356 42.3862 42.5381 42.9268 42.5381 43.5937C42.5381 44.2606 43.1356 44.8012 43.8726 44.8012Z" fill="black"/>
<path d="M45.5787 46.5883C46.3157 46.5883 46.9132 46.0477 46.9132 45.3808C46.9132 44.7139 46.3157 44.1733 45.5787 44.1733C44.8416 44.1733 44.2441 44.7139 44.2441 45.3808C44.2441 46.0477 44.8416 46.5883 45.5787 46.5883Z" fill="black"/>
<path d="M47.9361 47.6079C48.6731 47.6079 49.2706 47.0673 49.2706 46.4004C49.2706 45.7335 48.6731 45.1929 47.9361 45.1929C47.199 45.1929 46.6016 45.7335 46.6016 46.4004C46.6016 47.0673 47.199 47.6079 47.9361 47.6079Z" fill="black"/>
<path d="M53.0188 55.3251C54.5895 55.3251 55.8628 54.173 55.8628 52.7518C55.8628 51.3306 54.5895 50.1785 53.0188 50.1785C51.4481 50.1785 50.1748 51.3306 50.1748 52.7518C50.1748 54.173 51.4481 55.3251 53.0188 55.3251Z" fill="black"/>
<path d="M57.9778 53.0309C59.5485 53.0309 60.8218 51.8788 60.8218 50.4576C60.8218 49.0364 59.5485 47.8843 57.9778 47.8843C56.4071 47.8843 55.1338 49.0364 55.1338 50.4576C55.1338 51.8788 56.4071 53.0309 57.9778 53.0309Z" fill="black"/>
<path d="M61.5003 49.1294C63.071 49.1294 64.3443 47.9773 64.3443 46.5561C64.3443 45.1349 63.071 43.9828 61.5003 43.9828C59.9296 43.9828 58.6562 45.1349 58.6562 46.5561C58.6562 47.9773 59.9296 49.1294 61.5003 49.1294Z" fill="black"/>
<path d="M63.594 41.5947C65.1647 41.5947 66.438 40.4426 66.438 39.0214C66.438 37.6002 65.1647 36.4481 63.594 36.4481C62.0233 36.4481 60.75 37.6002 60.75 39.0214C60.75 40.4426 62.0233 41.5947 63.594 41.5947Z" fill="black"/>
<path d="M69.8215 35.6914C71.3922 35.6914 72.6655 34.5393 72.6655 33.1181C72.6655 31.6969 71.3922 30.5448 69.8215 30.5448C68.2508 30.5448 66.9775 31.6969 66.9775 33.1181C66.9775 34.5393 68.2508 35.6914 69.8215 35.6914Z" fill="black"/>
<path d="M102.853 12.1884C104.423 12.1884 105.697 11.0363 105.697 9.61509C105.697 8.19391 104.423 7.04181 102.853 7.04181C101.282 7.04181 100.009 8.19391 100.009 9.61509C100.009 11.0363 101.282 12.1884 102.853 12.1884Z" fill="white"/>
<path d="M102.853 19.4333C104.423 19.4333 105.697 18.2812 105.697 16.86C105.697 15.4388 104.423 14.2867 102.853 14.2867C101.282 14.2867 100.009 15.4388 100.009 16.86C100.009 18.2812 101.282 19.4333 102.853 19.4333Z" fill="white"/>
<path d="M94.5491 16.75C96.1198 16.75 97.3931 15.5979 97.3931 14.1767C97.3931 12.7555 96.1198 11.6034 94.5491 11.6034C92.9784 11.6034 91.7051 12.7555 91.7051 14.1767C91.7051 15.5979 92.9784 16.75 94.5491 16.75Z" fill="white"/>
<path d="M80.6106 24.5315C82.1813 24.5315 83.4546 23.3794 83.4546 21.9583C83.4546 20.5371 82.1813 19.385 80.6106 19.385C79.0399 19.385 77.7666 20.5371 77.7666 21.9583C77.7666 23.3794 79.0399 24.5315 80.6106 24.5315Z" fill="black"/>
<path d="M63.1555 32.0475C64.7262 32.0475 65.9995 30.8954 65.9995 29.4742C65.9995 28.053 64.7262 26.9009 63.1555 26.9009C61.5848 26.9009 60.3115 28.053 60.3115 29.4742C60.3115 30.8954 61.5848 32.0475 63.1555 32.0475Z" fill="black"/>
<path d="M54.721 32.1334C56.2917 32.1334 57.565 30.9813 57.565 29.5601C57.565 28.1389 56.2917 26.9868 54.721 26.9868C53.1503 26.9868 51.877 28.1389 51.877 29.5601C51.877 30.9813 53.1503 32.1334 54.721 32.1334Z" fill="black"/>
<path d="M49.2551 31.1673C50.8258 31.1673 52.0991 30.0152 52.0991 28.5941C52.0991 27.1729 50.8258 26.0208 49.2551 26.0208C47.6844 26.0208 46.4111 27.1729 46.4111 28.5941C46.4111 30.0152 47.6844 31.1673 49.2551 31.1673Z" fill="black"/>
<path d="M43.8225 32.2675C45.3932 32.2675 46.6665 31.1154 46.6665 29.6942C46.6665 28.273 45.3932 27.1209 43.8225 27.1209C42.2518 27.1209 40.9785 28.273 40.9785 29.6942C40.9785 31.1154 42.2518 32.2675 43.8225 32.2675Z" fill="black"/>
<path d="M39.3294 35.246C40.9001 35.246 42.1734 34.0939 42.1734 32.6727C42.1734 31.2515 40.9001 30.0994 39.3294 30.0994C37.7587 30.0994 36.4854 31.2515 36.4854 32.6727C36.4854 34.0939 37.7587 35.246 39.3294 35.246Z" fill="black"/>
<path d="M36.5364 39.6037C38.1071 39.6037 39.3804 38.4516 39.3804 37.0304C39.3804 35.6092 38.1071 34.4571 36.5364 34.4571C34.9657 34.4571 33.6924 35.6092 33.6924 37.0304C33.6924 38.4516 34.9657 39.6037 36.5364 39.6037Z" fill="black"/>
<path d="M35.9075 44.6107C37.4782 44.6107 38.7515 43.4586 38.7515 42.0374C38.7515 40.6162 37.4782 39.4641 35.9075 39.4641C34.3368 39.4641 33.0635 40.6162 33.0635 42.0374C33.0635 43.4586 34.3368 44.6107 35.9075 44.6107Z" fill="black"/>
<path d="M37.553 49.4245C39.1237 49.4245 40.397 48.2724 40.397 46.8512C40.397 45.4301 39.1237 44.278 37.553 44.278C35.9823 44.278 34.709 45.4301 34.709 46.8512C34.709 48.2724 35.9823 49.4245 37.553 49.4245Z" fill="black"/>
<path d="M41.1917 53.2375C42.7624 53.2375 44.0357 52.0854 44.0357 50.6642C44.0357 49.243 42.7624 48.0909 41.1917 48.0909C39.621 48.0909 38.3477 49.243 38.3477 50.6642C38.3477 52.0854 39.621 53.2375 41.1917 53.2375Z" fill="black"/>
<path d="M46.2161 55.4083C47.7868 55.4083 49.0601 54.2562 49.0601 52.835C49.0601 51.4138 47.7868 50.2617 46.2161 50.2617C44.6454 50.2617 43.3721 51.4138 43.3721 52.835C43.3721 54.2562 44.6454 55.4083 46.2161 55.4083Z" fill="black"/>
<path d="M55.4949 65.4653C58.1564 65.4653 60.314 63.5131 60.314 61.1049C60.314 58.6968 58.1564 56.7446 55.4949 56.7446C52.8334 56.7446 50.6758 58.6968 50.6758 61.1049C50.6758 63.5131 52.8334 65.4653 55.4949 65.4653Z" fill="black"/>
<path d="M63.8904 61.5772C66.5519 61.5772 68.7095 59.625 68.7095 57.2168C68.7095 54.8086 66.5519 52.8564 63.8904 52.8564C61.2289 52.8564 59.0713 54.8086 59.0713 57.2168C59.0713 59.625 61.2289 61.5772 63.8904 61.5772Z" fill="black"/>
<path d="M69.8601 54.9709C72.5216 54.9709 74.6792 53.0187 74.6792 50.6105C74.6792 48.2024 72.5216 46.2502 69.8601 46.2502C67.1986 46.2502 65.041 48.2024 65.041 50.6105C65.041 53.0187 67.1986 54.9709 69.8601 54.9709Z" fill="black"/>
<path d="M76.5505 46.4836C79.212 46.4836 81.3696 44.5314 81.3696 42.1233C81.3696 39.7151 79.212 37.7629 76.5505 37.7629C73.889 37.7629 71.7314 39.7151 71.7314 42.1233C71.7314 44.5314 73.889 46.4836 76.5505 46.4836Z" fill="black"/>
<path d="M79.3865 35.8846C82.048 35.8846 84.2056 33.9324 84.2056 31.5242C84.2056 29.1161 82.048 27.1639 79.3865 27.1639C76.725 27.1639 74.5674 29.1161 74.5674 31.5242C74.5674 33.9324 76.725 35.8846 79.3865 35.8846Z" fill="black"/>
<path d="M92.4343 27.8347C95.0958 27.8347 97.2534 25.8825 97.2534 23.4743C97.2534 21.0662 95.0958 19.114 92.4343 19.114C89.7728 19.114 87.6152 21.0662 87.6152 23.4743C87.6152 25.8825 89.7728 27.8347 92.4343 27.8347Z" fill="black"/>
<path d="M70.5808 25.401C73.2423 25.401 75.3999 23.4488 75.3999 21.0406C75.3999 18.6324 73.2423 16.6802 70.5808 16.6802C67.9193 16.6802 65.7617 18.6324 65.7617 21.0406C65.7617 23.4488 67.9193 25.401 70.5808 25.401Z" fill="black"/>
<path d="M82.74 18.4244C85.4015 18.4244 87.5591 16.4722 87.5591 14.064C87.5591 11.6558 85.4015 9.70364 82.74 9.70364C80.0785 9.70364 77.9209 11.6558 77.9209 14.064C77.9209 16.4722 80.0785 18.4244 82.74 18.4244Z" fill="black"/>
<path d="M59.8572 25.3741C62.5187 25.3741 64.6763 23.4219 64.6763 21.0137C64.6763 18.6056 62.5187 16.6534 59.8572 16.6534C57.1957 16.6534 55.0381 18.6056 55.0381 21.0137C55.0381 23.4219 57.1957 25.3741 59.8572 25.3741Z" fill="black"/>
<path d="M49.1189 24.545C51.7804 24.545 53.938 22.5928 53.938 20.1846C53.938 17.7764 51.7804 15.8242 49.1189 15.8242C46.4574 15.8242 44.2998 17.7764 44.2998 20.1846C44.2998 22.5928 46.4574 24.545 49.1189 24.545Z" fill="black"/>
<path d="M39.9138 26.4045C42.5753 26.4045 44.7329 24.4523 44.7329 22.0441C44.7329 19.636 42.5753 17.6838 39.9138 17.6838C37.2523 17.6838 35.0947 19.636 35.0947 22.0441C35.0947 24.4523 37.2523 26.4045 39.9138 26.4045Z" fill="black"/>
<path d="M32.3044 31.4518C34.966 31.4518 37.1235 29.4996 37.1235 27.0914C37.1235 24.6832 34.966 22.731 32.3044 22.731C29.6429 22.731 27.4854 24.6832 27.4854 27.0914C27.4854 29.4996 29.6429 31.4518 32.3044 31.4518Z" fill="black"/>
<path d="M27.574 38.8335C30.2355 38.8335 32.3931 36.8813 32.3931 34.4732C32.3931 32.065 30.2355 30.1128 27.574 30.1128C24.9125 30.1128 22.7549 32.065 22.7549 34.4732C22.7549 36.8813 24.9125 38.8335 27.574 38.8335Z" fill="black"/>
<path d="M26.5095 47.3128C29.171 47.3128 31.3286 45.3606 31.3286 42.9524C31.3286 40.5442 29.171 38.592 26.5095 38.592C23.848 38.592 21.6904 40.5442 21.6904 42.9524C21.6904 45.3606 23.848 47.3128 26.5095 47.3128Z" fill="black"/>
<path d="M29.2937 55.4673C31.9552 55.4673 34.1128 53.5151 34.1128 51.1069C34.1128 48.6988 31.9552 46.7466 29.2937 46.7466C26.6322 46.7466 24.4746 48.6988 24.4746 51.1069C24.4746 53.5151 26.6322 55.4673 29.2937 55.4673Z" fill="black"/>
<path d="M35.4597 61.926C38.1212 61.926 40.2788 59.9738 40.2788 57.5656C40.2788 55.1575 38.1212 53.2053 35.4597 53.2053C32.7982 53.2053 30.6406 55.1575 30.6406 57.5656C30.6406 59.9738 32.7982 61.926 35.4597 61.926Z" fill="black"/>
<path d="M43.9705 65.6075C46.632 65.6075 48.7896 63.6553 48.7896 61.2471C48.7896 58.839 46.632 56.8868 43.9705 56.8868C41.3089 56.8868 39.1514 58.839 39.1514 61.2471C39.1514 63.6553 41.3089 65.6075 43.9705 65.6075Z" fill="black"/>
<path d="M50.6964 41.3344H48.0273V97.96H50.6964V41.3344Z" fill="black"/>
<path d="M31.3287 68.6557C31.3287 68.6557 30.6258 83.5856 46.9129 84.6589C48.1228 69.9008 31.3287 68.6557 31.3287 68.6557Z" fill="black"/>
</g>
<defs>
<clipPath id="clip0_90_1513">
<rect width="110.16" height="97.02" fill="white" transform="translate(0.0800781 0.940002)"/>
</clipPath>
</defs>
</svg>
